<svg version="1.0" xmlns="http://www.w3.org/2000/svg" viewBox="-0.1 86.4 595.4 755.5"><path fill="#2E368F" d="M300.7 86.4h-3L-.1 118.1v547l297.7 176.8 297.7-176.8v-547L300.7 86.4zm256.9 556l-260 154.1L37.8 642.4V418.8l258.4 154.1v27.3L119.5 494.5v27.3L297.8 629v28.8L119.5 552.1v27.3l178.3 105.7 179.8-107.2V462.7l80.1-48.3-.1 228zm-1.5-256.8l-71 42.3-33.4 19.5-155.6-92.1v27.3l133.1 80.1h-1.5l-3 1.5-19.7 10.5-110.3-65V437l87.6 51.3-21.2 13.6-65-39.1v27.3l43.9 25.7-43.9 25.7-256.7-153 256.9-154.1 259.8 151.2zm1.5-27.2L296.1 204.3 37.8 358.4V153l259.8-27.3L557.4 153v205.4h.2z"/></svg>