<svg xmlns="http://www.w3.org/2000/svg">
  <symbol id="icon-close" viewBox="0 0 18 18">
    <path d="M18 1.3L16.7 0 9 7.7 1.3 0 0 1.3 7.7 9 0 16.7 1.3 18 9 10.3l7.7 7.7 1.3-1.3L10.3 9z"/>
  </symbol>
  <symbol id="icon-gift" viewBox="0 0 55.5 60">
    <path d="M52.3 12.2h-7a7.57 7.57 0 00.5-8.1c-1-1.8-2.6-3.1-4.6-3.7-2-.6-4.1-.4-5.9.6-3.6 2-6.2 6.1-7.6 9-1.4-2.9-4-7.1-7.6-9-3.8-2-8.5-.6-10.5 3.1-1.4 2.7-1.2 5.8.5 8.1h-7c-1.7 0-3.1 1.4-3.1 3.1v9.4c0 1.7 1.4 3.1 3.1 3.1H4v26.1c0 3.3 2.7 6 6 6h35.5c3.3 0 6-2.7 6-6V27.8h.8c1.7 0 3.1-1.4 3.1-3.1v-9.4c.1-1.7-1.3-3.1-3.1-3.1zM36.5 3a5.27 5.27 0 017.2 2.2 5.33 5.33 0 01-1.8 7H29.4C30.5 9.6 33 5 36.5 3zM11.7 5.2C13.2 2.6 16.4 1.6 19 3c3.5 1.9 6 6.6 7.1 9.1H13.5a5.24 5.24 0 01-1.8-6.9zm14.8 22.6v13.7H6.4V27.8h20.1zM6.4 53.9v-10h20.2v13.7H10c-2 0-3.6-1.7-3.6-3.7zm39.1 3.7H28.9V43.9h20.2v10c0 2-1.6 3.7-3.6 3.7zm3.6-16.1H28.9V27.8h20.2v13.7zm4-16.8c0 .4-.3.7-.7.7H3.2c-.4 0-.7-.3-.7-.7v-9.4c0-.4.3-.7.7-.7h49.2c.4 0 .7.3.7.7v9.4z"/>
  </symbol>
  <symbol id="icon-mail" viewBox="0 0 17 13">
    <path d="M15.6 11.6H1.4V5.8H0V13h17V5.8h-1.4v5.8zM0 0v2.3l8.5 7.1L17 2.3V0H0zm15.6 1.6L8.5 7.5 1.4 1.6v-.2h14.2v.2z"/>
  </symbol>
  <symbol id="icon-mobile-menu" viewBox="0 0 24 18">
    <path d="M0 16h24v2H0zm0-8h24v2H0zm0-8h24v2H0z"/>
  </symbol>
  <symbol id="icon-phone" viewBox="0 0 20 20">
    <path d="M17.9 9.4H9.4v1.2h8.5l-2.1 2.1.9.9 3.1-3.1c.2-.2.2-.6 0-.9l-3.1-3.1-.9.9 2.1 2zM8.1 19.4v-6.2c0-.3-.3-.6-.6-.6H3.1c0 .7.6 1.2 1.2 1.2h2.5v5H3.1c-1 .1-1.8-.7-1.9-1.7v-14c0-1 .8-1.8 1.7-1.8H6.8v5H4.4c-.7 0-1.2.6-1.2 1.2h4.4c.3 0 .6-.3.6-.6V.6C8.1.3 7.8 0 7.5 0H3.1A3 3 0 000 2.9V16.8c-.1 1.7 1.2 3.1 2.9 3.1H7.5c.3.1.6-.2.6-.5z"/>
  </symbol>
  <!-- Использованные: -->
  <symbol id="icon-tick" viewBox="0 0 21.1 15.5">
    <path d="M20.1 0L7.7 13.3 1 6.1 0 7.2l7.6 8.2.1.1L21 1.2l.1-.1z"/>
  </symbol>
  <symbol id="icon-vk" viewBox="0 0 22 12">
    <path d="M17.6 12c-.3 0-.9-.1-1.5-.5-.5-.3-.9-.7-1.3-1.2-.3-.3-.9-.9-1.1-.9-.2.1-.4.7-.3 1.2 0 .1 0 .6-.3.9-.3.3-.8.4-.9.4h-1.4c-.7 0-3.2-.2-5.4-2.3C2.5 7.1.2 2.2.1 2 0 1.6-.1 1.2.2.9s.8-.4 1-.4h3.1c.1 0 .4.1.7.3.3.2.4.5.5.6.7 1.5 1.5 2.8 2.6 4 .1-.4.2-1.4.1-2.3 0-.4-.1-.8-.2-1-.1-.1-.3-.2-.5-.2l-.6-.5c0-.5.5-.9.9-1.1.5-.2 1.3-.3 2.3-.3h.5c.9 0 1.2.1 1.6.1 1.2.3 1.2 1.3 1.1 2.5v1.6c0 .3 0 .8.1 1 .2-.1.6-.5 1.5-1.9.6-.9 1-1.9 1.1-2.1.1-.3.4-.7 1.2-.7h3.4c.7 0 1.2.2 1.3.7.2.5.1 1.3-1.7 3.5-.3.3-.5.6-.7.9-.5.4-.9 1-.9 1.1s.5.5.9.9c1.1.9 1.9 1.7 2.2 2.3.4.6.3 1 .2 1.3-.3.7-1.2.7-1.4.8h-2.9zm-3.9-3.7c.7 0 1.2.6 1.8 1.2.4.4.7.8 1.1 1 .5.3 1 .3 1 .3h2.9c.1 0 .3-.1.4-.1 0 0 0-.1-.1-.1-.3-.5-1-1.3-2-2.1-.9-.7-1.3-1.1-1.4-1.7 0-.6.4-1.1 1.2-2.1.2-.2.4-.5.7-.8 1.1-1.4 1.4-2 1.5-2.3h-3.9c0 .4-.5 1.5-1.1 2.4-1.4 2.1-2 2.4-2.5 2.4-.1 0-.3 0-.4-.1-.7-.4-.7-1.4-.7-2.1V2.6c.1-1.3 0-1.3-.3-1.4-.3-.1-.5-.1-1.4-.1H10c-.5 0-1 0-1.4.1l.2.2c.4.5.4 1.5.4 1.7.1 1.3 0 2.9-.7 3.3-.1 0-.2.1-.4.1-.6 0-1.3-.7-2.5-2.5C5 2.9 4.5 1.8 4.5 1.8s0-.1-.1-.1-.2-.1-.2-.1h-3c.4.9 2.5 5 4.8 7.2 2 1.9 4.3 2 4.7 2h1.4s.2 0 .2-.1v-.1c0-.2 0-2 1.2-2.3h.2z"/>
  </symbol>
  <symbol id="icon-insta" viewBox="0 0 16.1 16">
    <path d="M11.8 1C13.6 1 15 2.4 15 4.2v7.7c0 1.7-1.4 3.1-3.1 3.1H4.2C2.4 15 1 13.6 1 11.8V4.2C1 2.4 2.4 1 4.2 1h7.6m0-1H4.2C1.9 0 0 1.9 0 4.2v7.7C0 14.1 1.9 16 4.2 16h7.7c2.3 0 4.2-1.9 4.2-4.2V4.2C16 1.9 14.1 0 11.8 0z"/>
    <path d="M8 4.9c1.7 0 3.1 1.4 3.1 3.1S9.7 11.1 8 11.1 4.9 9.7 4.9 8 6.3 4.9 8 4.9m0-1C5.7 3.9 3.9 5.7 3.9 8s1.8 4.1 4.1 4.1 4.1-1.8 4.1-4.1S10.3 3.9 8 3.9z"/>
    <circle cx="12.3" cy="3.7" r=".9"/>
  </symbol>
  <symbol id="icon-fb" viewBox="0 0 10 19">
    <path d="M7.1 19H2v-8.8H0V5.8h1.9c-.1-2 .2-3.4 1.1-4.4C3.8.5 5 .1 6.5 0H10v4.2H7.2c-.1.2-.2.8-.2 1.6h3v4.4H7.1V19zm-4-1h2.8V9.1h2.9V6.8H5.9v-.5c0-1.4 0-2.6.7-3.1l.1-.1h2.1V1H6.5c-1.2.1-2 .4-2.6 1-.8.8-1 2.3-.8 4.2l.1.6H1.1v2.3h2V18z"/>
  </symbol>
  <symbol id="htmlacademy" viewBox="-0.1 86.4 595.4 755.5">
    <path d="M300.7 86.4h-3L-.1 118.1v547l297.7 176.8 297.7-176.8v-547L300.7 86.4zm256.9 556l-260 154.1L37.8 642.4V418.8l258.4 154.1v27.3L119.5 494.5v27.3L297.8 629v28.8L119.5 552.1v27.3l178.3 105.7 179.8-107.2V462.7l80.1-48.3-.1 228zm-1.5-256.8l-71 42.3-33.4 19.5-155.6-92.1v27.3l133.1 80.1h-1.5l-3 1.5-19.7 10.5-110.3-65V437l87.6 51.3-21.2 13.6-65-39.1v27.3l43.9 25.7-43.9 25.7-256.7-153 256.9-154.1 259.8 151.2zm1.5-27.2L296.1 204.3 37.8 358.4V153l259.8-27.3L557.4 153v205.4h.2z"/>
  </symbol>
</svg>
